<mxfile host="app.diagrams.net" modified="2023-05-27T16:45:48.861Z" agent="Mozilla/5.0 (Windows NT 10.0; Win64; x64) AppleWebKit/537.36 (KHTML, like Gecko) Chrome/112.0.0.0 Safari/537.36 OPR/98.0.0.0" etag="BYEoqe18pMsCC5_f_nDK" version="21.3.4" type="device">
  <diagram name="Page-1" id="VKMU4g4UH0HTz8x48zFp">
    <mxGraphModel dx="696" dy="401" grid="0" gridSize="10" guides="1" tooltips="1" connect="1" arrows="1" fold="1" page="1" pageScale="1" pageWidth="827" pageHeight="1169" background="#ffffff" math="0" shadow="0">
      <root>
        <mxCell id="0" />
        <mxCell id="1" parent="0" />
        <mxCell id="JUZib6-nhp5S9tP7I-Et-2" value="" style="rounded=0;whiteSpace=wrap;html=1;fillColor=#f9f7ed;strokeColor=#36393d;" vertex="1" parent="1">
          <mxGeometry x="200" y="360" width="240" height="86" as="geometry" />
        </mxCell>
        <mxCell id="JUZib6-nhp5S9tP7I-Et-5" value="&lt;font size=&quot;1&quot; color=&quot;#000000&quot;&gt;&lt;b style=&quot;font-size: 17px;&quot;&gt;EN&lt;/b&gt;&lt;/font&gt;" style="text;html=1;strokeColor=none;fillColor=none;align=center;verticalAlign=middle;whiteSpace=wrap;rounded=0;" vertex="1" parent="1">
          <mxGeometry x="200" y="418" width="40" height="20" as="geometry" />
        </mxCell>
        <mxCell id="JUZib6-nhp5S9tP7I-Et-6" value="&lt;font size=&quot;1&quot; color=&quot;#000000&quot;&gt;&lt;b style=&quot;font-size: 17px;&quot;&gt;CLK&lt;/b&gt;&lt;/font&gt;" style="text;html=1;strokeColor=none;fillColor=none;align=center;verticalAlign=middle;whiteSpace=wrap;rounded=0;" vertex="1" parent="1">
          <mxGeometry x="200" y="360" width="50" height="40" as="geometry" />
        </mxCell>
        <mxCell id="JUZib6-nhp5S9tP7I-Et-10" value="" style="endArrow=classic;html=1;rounded=0;strokeColor=#000000;entryX=0;entryY=0.5;entryDx=0;entryDy=0;" edge="1" parent="1" target="JUZib6-nhp5S9tP7I-Et-6">
          <mxGeometry width="50" height="50" relative="1" as="geometry">
            <mxPoint x="140" y="380" as="sourcePoint" />
            <mxPoint x="380" y="460" as="targetPoint" />
          </mxGeometry>
        </mxCell>
        <mxCell id="JUZib6-nhp5S9tP7I-Et-12" value="" style="endArrow=classic;html=1;rounded=0;strokeColor=#000000;entryX=0;entryY=0.5;entryDx=0;entryDy=0;" edge="1" parent="1">
          <mxGeometry width="50" height="50" relative="1" as="geometry">
            <mxPoint x="140" y="427" as="sourcePoint" />
            <mxPoint x="200" y="427" as="targetPoint" />
          </mxGeometry>
        </mxCell>
        <mxCell id="JUZib6-nhp5S9tP7I-Et-13" value="&lt;font color=&quot;#000000&quot;&gt;&lt;span style=&quot;font-size: 16px;&quot;&gt;Numarator inchidere usa&lt;br&gt;&lt;/span&gt;&lt;/font&gt;" style="text;html=1;strokeColor=none;fillColor=none;align=center;verticalAlign=middle;whiteSpace=wrap;rounded=0;" vertex="1" parent="1">
          <mxGeometry x="261" y="350" width="121" height="96" as="geometry" />
        </mxCell>
        <mxCell id="JUZib6-nhp5S9tP7I-Et-14" value="&lt;font color=&quot;#000000&quot;&gt;&lt;span style=&quot;font-size: 17px;&quot;&gt;&lt;b&gt;CARRY&lt;/b&gt;&lt;/span&gt;&lt;/font&gt;" style="text;html=1;strokeColor=none;fillColor=none;align=center;verticalAlign=middle;whiteSpace=wrap;rounded=0;" vertex="1" parent="1">
          <mxGeometry x="382" y="360" width="50" height="40" as="geometry" />
        </mxCell>
        <mxCell id="JUZib6-nhp5S9tP7I-Et-20" value="" style="endArrow=classic;html=1;rounded=0;strokeColor=#000000;entryX=0;entryY=0.5;entryDx=0;entryDy=0;" edge="1" parent="1">
          <mxGeometry width="50" height="50" relative="1" as="geometry">
            <mxPoint x="440" y="379.31" as="sourcePoint" />
            <mxPoint x="500" y="379.31" as="targetPoint" />
          </mxGeometry>
        </mxCell>
        <mxCell id="JUZib6-nhp5S9tP7I-Et-21" value="&lt;font color=&quot;#000000&quot;&gt;&lt;span style=&quot;font-size: 17px;&quot;&gt;&lt;b&gt;Q1 Q0&lt;/b&gt;&lt;/span&gt;&lt;/font&gt;" style="text;html=1;strokeColor=none;fillColor=none;align=center;verticalAlign=middle;whiteSpace=wrap;rounded=0;" vertex="1" parent="1">
          <mxGeometry x="276.5" y="421" width="87" height="20" as="geometry" />
        </mxCell>
        <mxCell id="JUZib6-nhp5S9tP7I-Et-23" value="&lt;font color=&quot;#000000&quot;&gt;&lt;span style=&quot;font-size: 17px;&quot;&gt;&lt;b&gt;RESET&lt;/b&gt;&lt;/span&gt;&lt;/font&gt;" style="text;html=1;strokeColor=none;fillColor=none;align=center;verticalAlign=middle;whiteSpace=wrap;rounded=0;" vertex="1" parent="1">
          <mxGeometry x="208" y="385" width="50" height="40" as="geometry" />
        </mxCell>
        <mxCell id="JUZib6-nhp5S9tP7I-Et-24" value="" style="endArrow=classic;html=1;rounded=0;strokeColor=#000000;entryX=0;entryY=0.5;entryDx=0;entryDy=0;" edge="1" parent="1">
          <mxGeometry width="50" height="50" relative="1" as="geometry">
            <mxPoint x="140" y="404.65999999999997" as="sourcePoint" />
            <mxPoint x="200" y="404.65999999999997" as="targetPoint" />
          </mxGeometry>
        </mxCell>
      </root>
    </mxGraphModel>
  </diagram>
</mxfile>
